<svg width="639" height="976" viewBox="0 0 639 976" fill="none" xmlns="http://www.w3.org/2000/svg">
<rect width="639" height="976" fill="#194BFB"/>
<path d="M606.278 9H602V26.5199H606.278V9Z" fill="#0436E7"/>
<path d="M617.145 9H612.867V26.5199H617.145V9Z" fill="#0436E7"/>
<path d="M628.01 9H623.732V26.5199H628.01V9Z" fill="#0436E7"/>
<path d="M606.278 33.9512H602V51.4711H606.278V33.9512Z" fill="#0436E7"/>
<path d="M617.145 33.9512H612.867V51.4711H617.145V33.9512Z" fill="#0436E7"/>
<path d="M617.145 58.8955H612.867V76.4155H617.145V58.8955Z" fill="#0436E7"/>
<path d="M628.01 58.8955H623.732V76.4155H628.01V58.8955Z" fill="#0436E7"/>
<path d="M606.278 83.8467H602V101.367H606.278V83.8467Z" fill="#0436E7"/>
<path d="M628.01 83.8467H623.732V101.367H628.01V83.8467Z" fill="#0436E7"/>
<path d="M606.278 108.799H602V126.318H606.278V108.799Z" fill="#0436E7"/>
<path d="M617.145 108.799H612.867V126.318H617.145V108.799Z" fill="#0436E7"/>
<path d="M606.278 133.75H602V151.27H606.278V133.75Z" fill="#0436E7"/>
<path d="M617.145 133.75H612.867V151.27H617.145V133.75Z" fill="#0436E7"/>
<path d="M628.01 133.75H623.732V151.27H628.01V133.75Z" fill="#0436E7"/>
<path d="M94.8768 884.246C93.1559 884.246 91.7537 882.844 91.7537 881.123C91.7537 879.402 93.1559 878 94.8768 878C96.5978 878 98 879.402 98 881.123C98 882.855 96.5978 884.246 94.8768 884.246ZM98 899.809C98 898.088 96.5978 896.686 94.8768 896.686C93.1559 896.686 91.7537 898.088 91.7537 899.809C91.7537 901.53 93.1559 902.932 94.8768 902.932C96.5978 902.932 98 901.541 98 899.809ZM98 918.495C98 916.774 96.5978 915.371 94.8768 915.371C93.1559 915.371 91.7537 916.774 91.7537 918.495C91.7537 920.216 93.1559 921.618 94.8768 921.618C96.5978 921.629 98 920.226 98 918.495ZM98 937.191C98 935.47 96.5978 934.068 94.8768 934.068C93.1559 934.068 91.7537 935.47 91.7537 937.191C91.7537 938.912 93.1559 940.314 94.8768 940.314C96.5978 940.314 98 938.912 98 937.191ZM98 955.877C98 954.156 96.5978 952.754 94.8768 952.754C93.1559 952.754 91.7537 954.156 91.7537 955.877C91.7537 957.598 93.1559 959 94.8768 959C96.5978 959 98 957.598 98 955.877ZM79.3142 881.123C79.3142 879.402 77.912 878 76.1911 878C74.4701 878 73.0679 879.402 73.0679 881.123C73.0679 882.844 74.4701 884.246 76.1911 884.246C77.912 884.246 79.3142 882.855 79.3142 881.123ZM79.3142 899.809C79.3142 898.088 77.912 896.686 76.1911 896.686C74.4701 896.686 73.0679 898.088 73.0679 899.809C73.0679 901.53 74.4701 902.932 76.1911 902.932C77.912 902.932 79.3142 901.541 79.3142 899.809ZM79.3142 918.495C79.3142 916.774 77.912 915.371 76.1911 915.371C74.4701 915.371 73.0679 916.774 73.0679 918.495C73.0679 920.216 74.4701 921.618 76.1911 921.618C77.912 921.629 79.3142 920.226 79.3142 918.495ZM79.3142 937.191C79.3142 935.47 77.912 934.068 76.1911 934.068C74.4701 934.068 73.0679 935.47 73.0679 937.191C73.0679 938.912 74.4701 940.314 76.1911 940.314C77.912 940.314 79.3142 938.912 79.3142 937.191ZM79.3142 955.877C79.3142 954.156 77.912 952.754 76.1911 952.754C74.4701 952.754 73.0679 954.156 73.0679 955.877C73.0679 957.598 74.4701 959 76.1911 959C77.912 959 79.3142 957.598 79.3142 955.877ZM60.6178 881.123C60.6178 879.402 59.2156 878 57.4947 878C55.7738 878 54.3715 879.402 54.3715 881.123C54.3715 882.844 55.7738 884.246 57.4947 884.246C59.2262 884.246 60.6178 882.855 60.6178 881.123ZM60.6178 899.809C60.6178 898.088 59.2156 896.686 57.4947 896.686C55.7738 896.686 54.3715 898.088 54.3715 899.809C54.3715 901.53 55.7738 902.932 57.4947 902.932C59.2262 902.932 60.6178 901.541 60.6178 899.809ZM60.6178 918.495C60.6178 916.774 59.2156 915.371 57.4947 915.371C55.7738 915.371 54.3715 916.774 54.3715 918.495C54.3715 920.216 55.7738 921.618 57.4947 921.618C59.2262 921.629 60.6178 920.226 60.6178 918.495ZM60.6178 937.191C60.6178 935.47 59.2156 934.068 57.4947 934.068C55.7738 934.068 54.3715 935.47 54.3715 937.191C54.3715 938.912 55.7738 940.314 57.4947 940.314C59.2262 940.314 60.6178 938.912 60.6178 937.191ZM60.6178 955.877C60.6178 954.156 59.2156 952.754 57.4947 952.754C55.7738 952.754 54.3715 954.156 54.3715 955.877C54.3715 957.598 55.7738 959 57.4947 959C59.2262 959 60.6178 957.598 60.6178 955.877ZM41.932 881.123C41.932 879.402 40.5298 878 38.8089 878C37.088 878 35.6858 879.402 35.6858 881.123C35.6858 882.844 37.088 884.246 38.8089 884.246C40.5404 884.246 41.932 882.855 41.932 881.123ZM41.932 899.809C41.932 898.088 40.5298 896.686 38.8089 896.686C37.088 896.686 35.6858 898.088 35.6858 899.809C35.6858 901.53 37.088 902.932 38.8089 902.932C40.5404 902.932 41.932 901.541 41.932 899.809ZM41.932 918.495C41.932 916.774 40.5298 915.371 38.8089 915.371C37.088 915.371 35.6858 916.774 35.6858 918.495C35.6858 920.216 37.088 921.618 38.8089 921.618C40.5404 921.629 41.932 920.226 41.932 918.495ZM41.932 937.191C41.932 935.47 40.5298 934.068 38.8089 934.068C37.088 934.068 35.6858 935.47 35.6858 937.191C35.6858 938.912 37.088 940.314 38.8089 940.314C40.5404 940.314 41.932 938.912 41.932 937.191ZM41.932 955.877C41.932 954.156 40.5298 952.754 38.8089 952.754C37.088 952.754 35.6858 954.156 35.6858 955.877C35.6858 957.598 37.088 959 38.8089 959C40.5404 959 41.932 957.598 41.932 955.877ZM23.2463 881.123C23.2463 879.402 21.8441 878 20.1232 878C18.4022 878 17 879.402 17 881.123C17 882.844 18.4022 884.246 20.1232 884.246C21.8441 884.246 23.2463 882.855 23.2463 881.123ZM23.2463 899.809C23.2463 898.088 21.8441 896.686 20.1232 896.686C18.4022 896.686 17 898.088 17 899.809C17 901.53 18.4022 902.932 20.1232 902.932C21.8441 902.932 23.2463 901.541 23.2463 899.809ZM23.2463 918.495C23.2463 916.774 21.8441 915.371 20.1232 915.371C18.4022 915.371 17 916.774 17 918.495C17 920.216 18.4022 921.618 20.1232 921.618C21.8441 921.618 23.2463 920.226 23.2463 918.495ZM23.2463 937.191C23.2463 935.47 21.8441 934.068 20.1232 934.068C18.4022 934.068 17 935.47 17 937.191C17 938.912 18.4022 940.314 20.1232 940.314C21.8441 940.314 23.2463 938.912 23.2463 937.191ZM23.2463 955.877C23.2463 954.156 21.8441 952.754 20.1232 952.754C18.4022 952.754 17 954.156 17 955.877C17 957.598 18.4022 959 20.1232 959C21.8441 959 23.2463 957.598 23.2463 955.877Z" fill="#0331D6"/>
</svg>
