<svg width="27" height="143" viewBox="0 0 27 143" fill="none" xmlns="http://www.w3.org/2000/svg">
<g id="Group">
<path id="Vector" d="M4.27764 0H0V17.5199H4.27764V0Z" fill="#0436E7"/>
<path id="Vector_2" d="M15.1444 0H10.8667V17.5199H15.1444V0Z" fill="#0436E7"/>
<path id="Vector_3" d="M26.0109 0H21.7333V17.5199H26.0109V0Z" fill="#0436E7"/>
<path id="Vector_4" d="M4.27764 24.9515H0V42.4714H4.27764V24.9515Z" fill="#0436E7"/>
<path id="Vector_5" d="M15.1444 24.9515H10.8667V42.4714H15.1444V24.9515Z" fill="#0436E7"/>
<path id="Vector_6" d="M15.1444 49.8951H10.8667V67.4151H15.1444V49.8951Z" fill="#0436E7"/>
<path id="Vector_7" d="M26.0109 49.8951H21.7333V67.4151H26.0109V49.8951Z" fill="#0436E7"/>
<path id="Vector_8" d="M4.27764 74.8468H0V92.3667H4.27764V74.8468Z" fill="#0436E7"/>
<path id="Vector_9" d="M26.0109 74.8468H21.7333V92.3667H26.0109V74.8468Z" fill="#0436E7"/>
<path id="Vector_10" d="M4.27764 99.7985H0V117.318H4.27764V99.7985Z" fill="#0436E7"/>
<path id="Vector_11" d="M15.1444 99.7985H10.8667V117.318H15.1444V99.7985Z" fill="#0436E7"/>
<path id="Vector_12" d="M4.27764 124.75H0V142.27H4.27764V124.75Z" fill="#0436E7"/>
<path id="Vector_13" d="M15.1444 124.75H10.8667V142.27H15.1444V124.75Z" fill="#0436E7"/>
<path id="Vector_14" d="M26.0109 124.75H21.7333V142.27H26.0109V124.75Z" fill="#0436E7"/>
</g>
</svg>
