<svg width="28" height="28" viewBox="0 0 28 28" fill="none" xmlns="http://www.w3.org/2000/svg">
<g id="money-send">
<g id="money-send_2">
<path id="Vector" d="M11.9583 11.7017C11.9583 12.3317 12.1333 12.425 12.5299 12.565L13.1249 12.775V10.7917H12.7749C12.3316 10.7917 11.9583 11.2 11.9583 11.7017Z" fill="#194BFB"/>
<path id="Vector_2" d="M14.875 17.2083H15.225C15.68 17.2083 16.0417 16.8 16.0417 16.2983C16.0417 15.6683 15.8667 15.575 15.47 15.435L14.875 15.225V17.2083Z" fill="#194BFB"/>
<path id="Vector_3" d="M22.8433 6.39333L20.4516 8.785C20.2766 8.95999 20.0549 9.04166 19.8333 9.04166C19.6116 9.04166 19.3899 8.95999 19.2149 8.785C18.8766 8.44666 18.8766 7.88666 19.2149 7.54833L21.6066 5.15666C19.5533 3.40666 16.9049 2.33333 13.9999 2.33333C7.55992 2.33333 2.33325 7.55999 2.33325 14C2.33325 20.44 7.55992 25.6667 13.9999 25.6667C20.4399 25.6667 25.6666 20.44 25.6666 14C25.6666 11.095 24.5933 8.44666 22.8433 6.39333ZM16.0416 13.79C16.7883 14.0583 17.7916 14.595 17.7916 16.31C17.7916 17.7683 16.6366 18.97 15.2249 18.97H14.8749V19.2617C14.8749 19.74 14.4783 20.1367 13.9999 20.1367C13.5216 20.1367 13.1249 19.74 13.1249 19.2617V18.97H13.0316C11.4799 18.97 10.2083 17.6633 10.2083 16.0533C10.2083 15.5633 10.6049 15.1667 11.0833 15.1667C11.5616 15.1667 11.9583 15.5633 11.9583 16.0417C11.9583 16.6833 12.4366 17.2083 13.0316 17.2083H13.1249V14.6183L11.9583 14.21C11.2116 13.9417 10.2083 13.405 10.2083 11.69C10.2083 10.2317 11.3633 9.02999 12.7749 9.02999H13.1249V8.74999C13.1249 8.27166 13.5216 7.87499 13.9999 7.87499C14.4783 7.87499 14.8749 8.27166 14.8749 8.74999V9.04166H14.9683C16.5199 9.04166 17.7916 10.3483 17.7916 11.9583C17.7916 12.4367 17.3949 12.8333 16.9166 12.8333C16.4383 12.8333 16.0416 12.4367 16.0416 11.9583C16.0416 11.3167 15.5633 10.7917 14.9683 10.7917H14.8749V13.3817L16.0416 13.79Z" fill="#194BFB"/>
<path id="Vector_4" d="M26.4717 1.99499C26.3783 1.78499 26.215 1.60999 25.9933 1.51666C25.8883 1.48166 25.7833 1.45833 25.6667 1.45833H21C20.5217 1.45833 20.125 1.85499 20.125 2.33333C20.125 2.81166 20.5217 3.20833 21 3.20833H23.555L21.6067 5.15666C22.05 5.54166 22.4583 5.94999 22.8433 6.39333L24.7917 4.44499V6.99999C24.7917 7.47833 25.1883 7.87499 25.6667 7.87499C26.145 7.87499 26.5417 7.47833 26.5417 6.99999V2.33333C26.5417 2.21666 26.5183 2.11166 26.4717 1.99499Z" fill="#194BFB"/>
</g>
</g>
</svg>
