<svg width="23" height="22" viewBox="0 0 23 22" fill="none" xmlns="http://www.w3.org/2000/svg">
<g id="google">
<path id="vector" d="M20.876 11.2137C20.876 10.4224 20.8104 9.84485 20.6686 9.24597H11.4474V12.8179H16.8601C16.751 13.7055 16.1617 15.0424 14.8521 15.9406L14.8338 16.0602L17.7494 18.2737L17.9514 18.2935C19.8065 16.6144 20.876 14.144 20.876 11.2137Z" fill="#4285F4"/>
<path id="vector_2" d="M11.4468 20.625C14.0985 20.625 16.3247 19.7694 17.9507 18.2936L14.8515 15.9408C14.0222 16.5076 12.9091 16.9033 11.4468 16.9033C8.8496 16.9033 6.64526 15.2243 5.85947 12.9036L5.74429 12.9131L2.71264 15.2125L2.67299 15.3205C4.28805 18.4647 7.6055 20.625 11.4468 20.625Z" fill="#34A853"/>
<path id="vector_3" d="M5.86004 12.9036C5.65271 12.3047 5.53271 11.663 5.53271 11C5.53271 10.3369 5.65271 9.69524 5.84914 9.09636L5.84365 8.96881L2.77399 6.63257L2.67356 6.67938C2.00791 7.98412 1.62597 9.44929 1.62597 11C1.62597 12.5507 2.00791 14.0158 2.67356 15.3205L5.86004 12.9036Z" fill="#FBBC05"/>
<path id="vector_4" d="M11.4468 5.09664C13.2911 5.09664 14.5351 5.87733 15.2444 6.52974L18.0163 3.8775C16.3139 2.32681 14.0986 1.375 11.4468 1.375C7.60553 1.375 4.28806 3.53526 2.67299 6.6794L5.84858 9.09638C6.64528 6.77569 8.84963 5.09664 11.4468 5.09664Z" fill="#EB4335"/>
</g>
</svg>
