<svg width="111" height="26" viewBox="0 0 111 26" fill="none" xmlns="http://www.w3.org/2000/svg">
<g id="Overpay.">
<path d="M10.3014 21.4005C16.2414 21.4005 19.9293 17.3635 19.9293 10.9073V10.8791C19.9293 4.43695 16.2273 0.400024 10.3014 0.400024C4.38956 0.400024 0.659462 4.43695 0.659462 10.8791V10.9073C0.659462 17.3635 4.36141 21.4005 10.3014 21.4005ZM10.3014 18.2497C6.66985 18.2497 4.36141 15.4224 4.36141 10.9073V10.8791C4.36141 6.36398 6.68392 3.55079 10.3014 3.55079C13.933 3.55079 16.2414 6.37805 16.2414 10.8791V10.9073C16.2414 15.3802 13.9752 18.2497 10.3014 18.2497Z" fill="#1A202C"/>
<path d="M26.5027 21.0488H30.3595L35.6098 6.13893H31.9501L28.5015 17.7996H28.417L24.9544 6.13893H21.2243L26.5027 21.0488Z" fill="#1A202C"/>
<path d="M43.253 21.3442C47.152 21.3442 49.3478 19.0374 49.8123 16.7446L49.8545 16.5899H46.5749L46.5467 16.6884C46.2089 17.6871 45.0687 18.6154 43.3233 18.6154C41.0431 18.6154 39.6073 17.0682 39.551 14.4519H49.9953V13.3266C49.9953 8.82552 47.349 5.82948 43.0841 5.82948C38.8191 5.82948 36.0743 8.92398 36.0743 13.622V13.6361C36.0743 18.3763 38.7768 21.3442 43.253 21.3442ZM43.1263 8.57233C44.9843 8.57233 46.3356 9.75387 46.5889 12.1169H39.5932C39.8748 9.8242 41.2683 8.57233 43.1263 8.57233Z" fill="#1A202C"/>
<path d="M52.2615 21.0488H55.7664V12.3983C55.7664 10.1899 56.9628 8.93805 58.9475 8.93805C59.5387 8.93805 60.0736 9.02244 60.3692 9.13497V5.97013C60.1018 5.89981 59.6936 5.82948 59.2572 5.82948C57.5399 5.82948 56.3013 6.91255 55.8368 8.71299H55.7664V6.13893H52.2615V21.0488Z" fill="#1A202C"/>
<path d="M62.1709 25.9719H65.6758V18.531H65.7462C66.5907 20.2752 68.2939 21.3442 70.4193 21.3442C74.1635 21.3442 76.5564 18.3904 76.5564 13.6079V13.5939C76.5564 8.78332 74.1635 5.82948 70.3771 5.82948C68.2376 5.82948 66.6048 6.92662 65.7462 8.71299H65.6758V6.13893H62.1709V25.9719ZM69.3355 18.3904C67.1678 18.3904 65.6476 16.5196 65.6476 13.6079V13.5939C65.6476 10.6682 67.1678 8.78332 69.3355 8.78332C71.5736 8.78332 72.9811 10.6119 72.9811 13.5939V13.6079C72.9811 16.5477 71.5736 18.3904 69.3355 18.3904Z" fill="#1A202C"/>
<path d="M83.2143 21.302C85.1849 21.302 86.8459 20.3174 87.7045 18.7561H87.7889V21.0488H91.2938V10.7948C91.2938 7.79871 88.8869 5.82948 85.1568 5.82948C81.3704 5.82948 79.076 7.81277 78.8649 10.4572L78.8508 10.626H82.1023L82.1304 10.4994C82.3557 9.40222 83.3691 8.6286 85.0301 8.6286C86.8036 8.6286 87.7889 9.54288 87.7889 11.0479V12.0747L83.8899 12.3139C80.2724 12.5389 78.2174 14.1284 78.2174 16.7728V16.8009C78.2174 19.4594 80.2302 21.302 83.2143 21.302ZM81.7082 16.6602V16.6462C81.7082 15.4646 82.6513 14.7191 84.3826 14.6066L87.7889 14.3956V15.5209C87.7889 17.2932 86.2687 18.6295 84.2559 18.6295C82.7216 18.6295 81.7082 17.884 81.7082 16.6602Z" fill="#1A202C"/>
<path d="M96.0655 26C99.1763 26 100.922 24.8326 102.062 21.5552L107.425 6.13893H103.737L100.232 18.0668H100.133L96.6426 6.13893H92.814L98.1769 21.0629L97.9658 21.6677C97.5153 22.9196 96.7693 23.2994 95.4321 23.2994C94.9395 23.2994 94.5313 23.229 94.2638 23.1728V25.8453C94.6861 25.9156 95.3899 26 96.0655 26Z" fill="#1A202C"/>
<path d="M108.973 21.2739C110.113 21.2739 111 20.3737 111 19.2343C111 18.109 110.113 17.2088 108.973 17.2088C107.833 17.2088 106.932 18.109 106.932 19.2343C106.932 20.3737 107.833 21.2739 108.973 21.2739Z" fill="#1A202C"/>
</g>
</svg>
